<svg xmlns="http://www.w3.org/2000/svg" viewBox="0 0 16 16">
  <path
    id="path"
    d="M 15.75 8
       C 15.75 12.28 12.28 15.75 8 15.75
         3.72 15.75 0.25 12.28 0.25 8
         0.25 3.72 3.72 0.25 8 0.25
         12.28 0.25 15.75 3.72 15.75 8 Z
       M 11.32 6.9
       C 11.47 5.87 10.69 5.31 9.62 4.94
         9.62 4.94 9.97 3.54 9.97 3.54
         9.97 3.54 9.12 3.33 9.12 3.33
         9.12 3.33 8.78 4.69 8.78 4.69
         8.56 4.63 8.33 4.58 8.1 4.53
         8.1 4.53 8.44 3.16 8.44 3.16
         8.44 3.16 7.59 2.95 7.59 2.95
         7.59 2.95 7.24 4.35 7.24 4.35
         7.05 4.31 6.87 4.27 6.7 4.22
         6.7 4.22 6.7 4.22 6.7 4.22
         6.7 4.22 5.53 3.93 5.53 3.93
         5.53 3.93 5.3 4.84 5.3 4.84
         5.3 4.84 5.93 4.98 5.92 4.99
         6.26 5.08 6.33 5.3 6.32 5.48
         6.32 5.48 5.92 7.07 5.92 7.07
         5.94 7.08 5.97 7.08 6.01 7.1
         5.98 7.09 5.95 7.09 5.92 7.08
         5.92 7.08 5.36 9.31 5.36 9.31
         5.32 9.41 5.21 9.57 4.97 9.51
         4.98 9.52 4.35 9.36 4.35 9.36
         4.35 9.36 3.93 10.33 3.93 10.33
         3.93 10.33 5.04 10.61 5.04 10.61
         5.25 10.66 5.45 10.72 5.65 10.77
         5.65 10.77 5.3 12.18 5.3 12.18
         5.3 12.18 6.15 12.39 6.15 12.39
         6.15 12.39 6.5 10.99 6.5 10.99
         6.7 11.05 6.92 11.11 7.15 11.17
         7.15 11.17 6.83 12.56 6.83 12.56
         6.83 12.56 7.68 12.77 7.68 12.77
         7.68 12.77 8.03 11.36 8.03 11.36
         9.48 11.63 10.57 11.52 11.03 10.21
         11.4 9.15 11.01 8.54 10.25 8.15
         10.81 8.02 11.22 7.66 11.34 6.9
         11.34 6.9 11.32 6.9 11.32 6.9 Z
       M 9.4 9.62
       C 9.14 10.68 7.36 10.11 6.78 9.96
         6.78 9.96 7.25 8.09 7.25 8.09
         7.83 8.23 9.67 8.52 9.4 9.62
         9.4 9.62 9.4 9.62 9.4 9.62 Z
       M 9.66 6.88
       C 9.42 7.84 7.94 7.35 7.46 7.23
         7.46 7.23 7.88 5.53 7.88 5.53
         8.36 5.65 9.91 5.87 9.66 6.87
         9.66 6.87 9.66 6.88 9.66 6.88 Z"
  />
</svg>
