<svg xmlns="http://www.w3.org/2000/svg" viewBox="0 0 16 16">
  <path
    id="path"
    d="M 3.34 0.85
       C 3.23 0.57 2.86 0.57 2.75 0.85
         2.75 0.85 1 6.26 1 6.26
         1 6.26 5.09 6.26 5.09 6.26
         5.08 6.26 3.34 0.85 3.34 0.85 Z
       M 0.1 8.98
       C 0.03 9.24 0.11 9.51 0.32 9.67
         0.32 9.67 8 15.35 8 15.35
         8 15.35 1 6.26 1 6.26
         1 6.26 0.1 8.98 0.1 8.98 Z
       M 5.08 6.26
       C 5.08 6.26 8 15.35 8 15.35
         8 15.35 10.92 6.26 10.92 6.26
         10.92 6.26 5.08 6.26 5.08 6.26
         5.08 6.26 5.08 6.26 5.08 6.26 Z
       M 15.9 8.98 C 15.9 8.98 15 6.26 15 6.26
       C 15 6.26 8 15.35 8 15.35
         8 15.35 15.68 9.67 15.68 9.67
         15.89 9.51 15.97 9.24 15.9 8.98 Z
       M 13.25 0.85
       C 13.16 0.57 12.77 0.57 12.66 0.85
         12.66 0.85 10.92 6.26 10.92 6.26
         10.92 6.26 15 6.26 15 6.26
         15 6.26 13.25 0.85 13.25 0.85 Z"
  />
</svg>
