<svg xmlns="http://www.w3.org/2000/svg" viewBox="0 0 16 16">
  <path
    id="path"
    d="M 15.75 3.19
       C 15.17 3.44 14.56 3.62 13.92 3.69
         14.57 3.3 15.08 2.68 15.32 1.93
         14.7 2.3 14.03 2.56 13.3 2.71
         12.71 2.09 11.9 1.7 10.98 1.7
         9.23 1.7 7.8 3.13 7.8 4.88
         7.8 5.13 7.83 5.38 7.88 5.61
         5.25 5.47 2.9 4.21 1.33 2.28
         1.06 2.75 0.9 3.3 0.9 3.88
         0.9 4.98 1.47 5.95 2.32 6.53
         1.79 6.51 1.3 6.37 0.88 6.13
         0.88 6.14 0.88 6.15 0.88 6.17
         0.88 7.71 1.97 9 3.43 9.28
         3.16 9.35 2.88 9.4 2.59 9.4
         2.39 9.4 2.19 9.38 1.99 9.33
         2.4 10.6 3.57 11.52 4.97 11.55
         3.88 12.4 2.51 12.9 1.02 12.9
         0.77 12.9 0.51 12.89 0.26 12.86
         1.67 13.78 3.34 14.3 5.12 14.3
         10.97 14.3 14.17 9.45 14.17 5.25
         14.17 5.11 14.16 4.98 14.16 4.84
         14.78 4.39 15.32 3.83 15.75 3.19 Z"
  />
</svg>
